<?xml version="1.0" encoding="UTF-8"?>
<svg enable-background="new 0 0 132.2 42.5" version="1.1" viewBox="0 0 132.2 42.5" xml:space="preserve" xmlns="http://www.w3.org/2000/svg">
<style type="text/css">
	.st0{fill:#FA3600;}
	.st1{fill:#38977D;}
	.st2{fill:#0B222C;}
</style>
<path class="st0" d="m36.6 5c0 2.4-1.8 3.8-4.1 3.8-2.2 0-4.1-1.4-4.1-3.8s1.9-3.7 4.1-3.7c2.4-0.1 4.1 1.3 4.1 3.7"/>
<polygon class="st0" points="31.5 26.2 33.6 26.2 37.5 40.6 27.5 40.6"/>
<polygon class="st1" points="33.6 26.2 31.5 26.2 27.5 11.7 37.6 11.7"/>
<path class="st2" d="m4 34c2.4 1.8 5.2 2.8 8.2 2.8 3.9 0 5.6-1.7 5.6-4 0-2.2-1.3-3.3-6.6-4.9-6.5-2-9.6-4.1-9.6-8.7 0-5 3.8-8.3 10.6-8.3 7.2 0 10.1 3 10.1 3l-2.6 3.9s-2.7-2.4-7.5-2.4c-3.3 0-5.3 1.3-5.3 3.6 0 2 1.5 2.9 6.4 4.4 7 2 9.8 4.5 9.8 9 0 4.9-3.5 8.8-10.7 8.8-7.4 0-11-3.6-11-3.6l2.6-3.6z"/>
<polygon class="st2" points="68.3 40.6 64.7 40.6 48.1 20.1 48.1 40.6 43.3 40.6 43.3 11.7 46.9 11.7 63.5 32.1 63.5 11.7 68.3 11.7"/>
<path class="st2" d="m96.2 28.3h-5.3v-4h10.4v2.8c0 8.6-5 14.2-13.2 14.2-9 0-14.4-6.7-14.4-15.1 0-8.5 5.6-15.1 14.5-15.1 7.2 0 10.3 3.7 10.3 3.7l-2.8 3.7c-2-1.9-4.7-2.9-7.5-2.8-5.8 0-9.7 4.6-9.7 10.6s3.7 10.5 9.5 10.5c5.1 0 8.2-3.4 8.2-8.2v-0.3z"/>
<path class="st2" d="m130.6 40.6h-5l-2.4-5.9h-13.8l-2.3 5.9h-5l11.8-28.9h4.8l11.9 28.9zm-19.6-10h10.6l-5.3-13.4-5.3 13.4z"/>
</svg>
